#!OML:ASF E:\basketball\basketball\Project 1\Capture day 1\Session 1\Subject.ASF
:FULLY-SPECIFIED
:DEGREES
24
root 5.59296 14.8028 -2.31356 168.97 -82.8594 -168.891
lowerback 12.9722 1.05384 -2.50406
upperback 6.52576 0.779032 0.575189
thorax -0.471058 0.180198 1.90771
lowerneck -3.09867 -7.64435 -16.295
upperneck -12.4333 -8.97423 25.2299
head -0.880929 -4.92825 10.6136
rclavicle -7.95139e-016 -9.54166e-015
rhumerus 51.3899 5.43918 -45.189
rradius 59.7058
rwrist -1.34205
rhand -2.14588 24.7725
rfingers 7.12502
rthumb 23.5335 -3.80778
lclavicle -7.95139e-016 -9.54166e-015
lhumerus 46.5705 -4.39688 36.6148
lradius 61.3705
lwrist -0.16066
lhand -14.2607 20.5065
lfingers 7.12502
lthumb 11.8777 50.1496
rfemur -31.0178 -5.61281 19.4855
rtibia 62.4271
rfoot -24.3632 -13.8366
rtoes -12.4797
lfemur -29.113 11.3201 -15.4371
ltibia 61.9167
lfoot -25.4525 -0.835582
ltoes -13.9351
25
root 5.59386 14.8046 -2.31358 169.722 -82.8745 -169.669
lowerback 12.987 1.05745 -2.63218
upperback 6.53665 0.767826 0.566673
thorax -0.468154 0.171292 1.9725
lowerneck -2.99855 -7.63162 -16.4677
upperneck -12.5149 -8.95196 25.4641
head -0.898069 -4.92901 10.7376
rclavicle -1.63997e-015 -1.86858e-014
rhumerus 51.4098 5.40789 -45.1804
rradius 59.7093
rwrist -1.402
rhand -2.18203 24.9399
rfingers 7.12502
rthumb 23.4988 -3.64483
lclavicle -1.63997e-015 -1.86858e-014
lhumerus 46.5708 -4.38581 36.4981
lradius 61.4138
lwrist -0.0955763
lhand -14.3724 20.5017
lfingers 7.12502
lthumb 11.77 50.151
rfemur -30.9937 -5.64904 19.3716
rtibia 62.4213
rfoot -24.2986 -13.8215
rtoes -12.4839
lfemur -29.0668 11.3164 -15.5447
ltibia 61.8767
lfoot -25.4683 -0.893433
ltoes -13.7251
26
root 5.59483 14.8026 -2.31384 169.685 -82.8561 -169.661
lowerback 12.9682 1.05714 -2.63676
upperback 6.58636 0.764421 0.560646
thorax -0.405705 0.166739 1.96954
lowerneck -2.95396 -7.62665 -16.5931
upperneck -12.5506 -8.94149 25.6763
head -0.89447 -4.93243 10.84
rclavicle -1.18774e-014 8.15017e-015
rhumerus 51.4676 5.3428 -45.1394
rradius 59.6809
rwrist -1.46038
rhand -2.32121 25.1196
rfingers 7.12502
rthumb 23.3653 -3.48219
lclavicle -1.18774e-014 8.15017e-015
lhumerus 46.6576 -4.32762 36.417
lradius 61.3515
lwrist -0.0906261
lhand -14.4489 20.3751
lfingers 7.12502
lthumb 11.6962 50.0286
rfemur -30.9709 -5.62088 19.3784
rtibia 62.4358
rfoot -24.3084 -13.8556
rtoes -12.9598
lfemur -29.0598 11.3359 -15.522
ltibia 61.9008
lfoot -25.5082 -0.961075
ltoes -13.4996
27
root 5.59642 14.7989 -2.31411 169.082 -82.8306 -169.05
lowerback 12.9859 1.04696 -2.54195
upperback 6.57228 0.76148 0.549194
thorax -0.428798 0.16833 1.90438
lowerneck -2.91832 -7.60486 -16.6065
upperneck -12.4995 -8.92023 25.7334
head -0.885839 -4.92367 10.8642
rclavicle 2.33572e-015 2.14687e-014
rhumerus 51.4498 5.31567 -45.1355
rradius 59.7026
rwrist -1.53464
rhand -2.35963 25.116
rfingers 7.12502
rthumb 23.3284 -3.49049
lclavicle 2.33572e-015 2.14687e-014
lhumerus 46.669 -4.34903 36.3434
lradius 61.3467
lwrist -0.0484743
lhand -14.5006 20.3661
lfingers 7.12502
lthumb 11.6464 50.0224
rfemur -30.9981 -5.57906 19.4744
rtibia 62.4635
rfoot -24.3848 -13.8931
rtoes -13.2337
lfemur -29.1123 11.3728 -15.4245
ltibia 61.965
lfoot -25.5127 -0.972682
ltoes -13.5664
28
root 5.5982 14.7936 -2.3147 168.526 -82.8274 -168.485
lowerback 13.0093 1.03519 -2.4727
upperback 6.5731 0.752798 0.554033
thorax -0.439417 0.165418 1.87137
lowerneck -2.97593 -7.63354 -16.5302
upperneck -12.4231 -8.96554 25.629
head -0.857051 -4.93848 10.8032
rclavicle 1.47101e-014 -1.0138e-014
rhumerus 51.4653 5.27554 -45.1654
rradius 59.7493
rwrist -1.6299
rhand -2.28912 25.0174
rfingers 7.12502
rthumb 23.3961 -3.58052
lclavicle 1.47101e-014 -1.0138e-014
lhumerus 46.6533 -4.3377 36.2775
lradius 61.3944
lwrist -0.00440497
lhand -14.4962 20.3361
lfingers 7.12502
lthumb 11.6507 49.9922
rfemur -31.0028 -5.57022 19.5586
rtibia 62.5
rfoot -24.433 -13.8794
rtoes -12.9338
lfemur -29.1679 11.4262 -15.3374
ltibia 62.0449
lfoot -25.4576 -1.04511
ltoes -13.5749
29
root 5.60063 14.79 -2.31525 168.526 -82.8346 -168.485
lowerback 13.0106 1.03383 -2.50992
upperback 6.60689 0.745055 0.581143
thorax -0.404951 0.158429 1.9217
lowerneck -3.10224 -7.69142 -16.5024
upperneck -12.3696 -9.04073 25.4815
head -0.817257 -4.96132 10.7311
rclavicle -1.93815e-014 -7.7526e-015
rhumerus 51.5564 5.22368 -45.1425
rradius 59.7585
rwrist -1.69317
rhand -2.25453 25
rfingers 7.12502
rthumb 23.4292 -3.59364
lclavicle -1.93815e-014 -7.7526e-015
lhumerus 46.625 -4.26972 36.2843
lradius 61.434
lwrist 0.00281199
lhand -14.4667 20.2151
lfingers 7.12502
lthumb 11.679 49.8696
rfemur -31.0188 -5.57498 19.5628
rtibia 62.5463
rfoot -24.408 -13.8681
rtoes -12.8181
lfemur -29.2207 11.4532 -15.3298
ltibia 62.1164
lfoot -25.4512 -1.15515
ltoes -13.2414
30
root 5.60162 14.7885 -2.31501 168.417 -82.8024 -168.389
lowerback 13.0272 1.04002 -2.53408
upperback 6.60894 0.750095 0.614761
thorax -0.412561 0.159698 1.96959
lowerneck -2.96129 -7.65629 -16.6213
upperneck -12.5222 -8.98589 25.545
head -0.884682 -4.94503 10.7932
rclavicle 2.19657e-014 -2.04748e-014
rhumerus 51.612 5.22404 -45.1103
rradius 59.7195
rwrist -1.68777
rhand -2.30213 25.131
rfingers 7.12502
rthumb 23.3836 -3.46848
lclavicle 2.19657e-014 -2.04748e-014
lhumerus 46.5522 -4.25924 36.32
lradius 61.4496
lwrist -0.0013334
lhand -14.483 20.1221
lfingers 7.12502
lthumb 11.6633 49.7774
rfemur -31.0743 -5.53814 19.587
rtibia 62.6015
rfoot -24.3492 -13.9401
rtoes -12.9519
lfemur -29.2382 11.469 -15.3021
ltibia 62.1832
lfoot -25.4969 -1.1994
ltoes -13.009
31
root 5.60097 14.7848 -2.31476 168.169 -82.7784 -168.139
lowerback 12.9958 1.03952 -2.55815
upperback 6.6156 0.74837 0.660609
thorax -0.389379 0.157144 2.03137
lowerneck -2.73343 -7.59646 -16.6056
upperneck -12.7492 -8.90126 25.5121
head -1.00928 -4.92319 10.8068
rclavicle -2.01269e-014 -5.96354e-015
rhumerus 51.6713 5.22625 -45.0699
rradius 59.682
rwrist -1.64743
rhand -2.37536 25.2255
rfingers 7.12502
rthumb 23.3133 -3.38286
lclavicle -2.01269e-014 -5.96354e-015
lhumerus 46.5308 -4.24587 36.3612
lradius 61.3886
lwrist -0.00746787
lhand -14.5994 20.1274
lfingers 7.12502
lthumb 11.5511 49.7891
rfemur -31.1383 -5.50381 19.6291
rtibia 62.6735
rfoot -24.3443 -14.0141
rtoes -13.0382
lfemur -29.2684 11.4696 -15.2607
ltibia 62.2599
lfoot -25.5552 -1.14234
ltoes -13.249
32
root 5.60215 14.7767 -2.31461 168.48 -82.8157 -168.44
lowerback 12.9728 1.03504 -2.64269
upperback 6.62157 0.734011 0.67838
thorax -0.370923 0.147461 2.09962
lowerneck -2.61952 -7.58657 -16.453
upperneck -12.8555 -8.89215 25.3163
head -1.08419 -4.92628 10.7208
rclavicle -7.10655e-015 4.96962e-015
rhumerus 51.7003 5.19035 -45.0583
rradius 59.7072
rwrist -1.5961
rhand -2.44136 25.1251
rfingers 7.12502
rthumb 23.25 -3.49126
lclavicle -7.10655e-015 4.96962e-015
lhumerus 46.5599 -4.24748 36.385
lradius 61.3133
lwrist 0.015878
lhand -14.6796 20.1964
lfingers 7.12502
lthumb 11.4738 49.8625
rfemur -31.1896 -5.53638 19.5784
rtibia 62.7677
rfoot -24.4122 -13.9757
rtoes -12.9271
lfemur -29.3481 11.4449 -15.3195
ltibia 62.3374
lfoot -25.585 -1.02963
ltoes -13.8142
